<svg xmlns="http://www.w3.org/2000/svg" xmlns:xlink="http://www.w3.org/1999/xlink" enable-background="new 0 0 2506.805 2100" viewBox="0 0 2506.805 2100"><path fill="#ffe5dc" d="M852.605 1871.168h-549.44s-48.82-353.794 85.683-593.578 397.973-539.174 1000.834-475.354 685.633 444.188 755.988 637.856c70.355 193.668 105.533 426.378 0 431.076-105.533 4.698-1293.065 0-1293.065 0z" class="colorffe5dc svgShape"/><path fill="#36995e" d="M1692.463 633.977H810.586c-30.25 0-55-24.75-55-55V427.66c0-30.25 24.75-55 55-55h881.877c30.25 0 55 24.75 55 55v151.317c0 30.25-24.75 55-55 55z" class="color36995e svgShape"/><path fill="#434a59" d="M839.143 600.241s12.352-17.901 34.952-9.412c22.6 8.488 17.066 54.479 23.362 73.973 6.296 19.494 13.229 49.537 26.886 64.71 13.657 15.173 28.83 38.054 10.646 54.15-18.183 16.096-73.835 38.943-106.216 12.057-32.382-26.887-46.384-63.651-45.055-98.653.656-17.279-1.685-42.075 6.761-64.011 8.665-22.499 28.361-41.814 48.664-32.814z" class="color434a59 svgShape"/><path fill="#d17a69" d="m890.967 748.153 207.646 30.303s74.308-147.103 93.542-146.925c19.234.178 64.758 13.195 66.828 28.673 2.069 15.478-37.263 225.325-115.558 247.496-78.294 22.171-205.22-48.849-230.052-78.337s-22.406-81.21-22.406-81.21z" class="colord17a69 svgShape"/><path fill="#ffbfae" d="M1989.432 1854.457H425.655c-28.849 0-149.584 5.221-122.49 16.711 25.126 10.656 198.039 16.711 226.888 16.711h1505.825c87.732 0 165.546-7.52 136.837-16.711-28.71-9.191-87.81-16.711-183.283-16.711z" class="colorffbfae svgShape"/><path fill="#d1744b" d="M1802.338 1833.516c-2.168-8.084-10.463-12.881-18.556-10.715l-8.907 2.386a151.194 151.194 0 0 1-138.299-31.825l-6.493-5.63a284.572 284.572 0 0 1-98.253-215.168v-377.337c0-8.367-6.784-15.15-15.15-15.15-1.31 0-2.575.184-3.788.497a15.118 15.118 0 0 0-3.788-.497c-8.367 0-15.15 6.784-15.15 15.15v377.337a284.58 284.58 0 0 1-98.253 215.17l-6.493 5.627a151.197 151.197 0 0 1-138.299 31.826l-8.907-2.386c-8.093-2.163-16.391 2.632-18.556 10.715-2.165 8.082 2.634 16.39 10.714 18.555l8.907 2.386a181.889 181.889 0 0 0 47.079 6.204c43.165 0 85.458-15.413 118.907-44.403l6.493-5.627a314.917 314.917 0 0 0 76.418-99.11v25.542c0 47.984-23.226 93.403-62.13 121.494l-6.192 4.472c-6.784 4.9-8.312 14.37-3.413 21.154a15.131 15.131 0 0 0 12.295 6.281c3.075 0 6.177-.932 8.858-2.869l6.192-4.472c46.771-33.772 74.692-88.372 74.692-146.059v-52.121a314.841 314.841 0 0 0 87.973 125.687l6.493 5.63c33.452 28.991 75.737 44.403 118.908 44.403a181.95 181.95 0 0 0 47.079-6.205l8.907-2.386c8.079-2.166 12.877-10.474 10.712-18.556z" class="colord1744b svgShape"/><path fill="#9e593e" d="M1531.831 1291.521v-96.294c0-8.367-6.784-15.15-15.15-15.15-1.31 0-2.575.184-3.788.497a15.118 15.118 0 0 0-3.788-.497c-8.367 0-15.15 6.784-15.15 15.15v96.35c11.043 1.22 24.283 1.688 37.876-.056z" class="color9e593e svgShape"/><path fill="#404859" d="M1270.683 1852.409c-12.704-6.103-22.043-23.626-28.325-34.812-.424-.754-4.903-11.89-5.046-13.154-.619-5.464-16.757-20.438-22.425-9.282-11.174 21.988-4.329-5.367-11.08 1.377-11.234 11.221-17.891 62.605-9.46 69.757 16.121 13.676 129.123 21.781 129.834 11.005.426-6.467-31.529-14.337-53.498-24.891z" class="color404859 svgShape"/><path fill="#434a59" d="M418.279 1860.198c-1.055 0-2.126-.135-3.192-.419-6.604-1.759-10.534-8.538-8.775-15.142l115.505-433.868c1.759-6.606 8.544-10.537 15.142-8.775 6.604 1.759 10.534 8.538 8.775 15.142L430.23 1851.003c-1.475 5.538-6.479 9.195-11.951 9.195zM913.145 1860.198c-5.471 0-10.476-3.656-11.95-9.195l-115.504-433.868c-1.759-6.604 2.171-13.384 8.775-15.142 6.602-1.762 13.384 2.17 15.142 8.775l115.503 433.868c1.759 6.604-2.171 13.384-8.775 15.142-1.066.285-2.138.42-3.191.42zM607.969 1860.198c-1.055 0-2.126-.135-3.192-.419-6.604-1.759-10.534-8.538-8.775-15.142l115.504-433.868c1.759-6.606 8.544-10.537 15.142-8.775 6.604 1.759 10.534 8.538 8.775 15.142l-115.504 433.868c-1.474 5.537-6.479 9.194-11.95 9.194zM1102.834 1860.198c-5.471 0-10.476-3.656-11.95-9.195L975.38 1417.135c-1.759-6.604 2.171-13.384 8.775-15.142 6.603-1.762 13.383 2.17 15.142 8.775l115.503 433.868c1.759 6.604-2.171 13.384-8.775 15.142-1.066.285-2.138.42-3.191.42z" class="color434a59 svgShape"/><path fill="#3888a0" d="M988.504 1146.06c-44.05-46.59-139.397-37.854-175.31-74.738-35.913-36.884-191.083-197.565-333.894-203.831-152.974-6.711-141.556 87.591-141.556 87.591l4.713 76.263 7.703 73.345s84.491 161.727 114.58 196.669c30.089 34.942 317.393 124.24 352.336 127.151 12.307 1.026 37.489 6.923 66.819 11.58l168.531-156.545c-6.035-35.434-27.365-98.821-63.922-137.485z" class="color3888a0 svgShape"/><path fill="#5cbec6" d="m1061.929 1281.422-191.031 106.129 12.998 52.541c53.942 8.566 122.718 15.639 148.446-20.381 22.236-31.131 30.728-61.3 31.371-120.474.048-4.461-.547-10.551-1.784-17.815z" class="color5cbec6 svgShape"/><path fill="#594541" d="M1408.856 1255.83c-22.617-98.692-415.014-107.424-415.014-107.424s-92.471 46.698-167.457 95.016c-45.471 29.299-120.653 39.695-172.801 43.342 12.774 24.841 37.737 47.896 82.258 66.658 156.127 65.795 526.567-43.086 526.567-43.086l-79.235 505.704 95.608 22.798c0 .001 152.691-484.316 130.074-583.008z" class="color594541 svgShape"/><path fill="#404859" d="M1037.219 1830.451c-1.712-5.092 1.396-8.136 1.324-21.449-.005-.898 6.606-16.582 7.112-17.801 2.187-5.269-4.922-26.982-15.678-19.714-21.202 14.326-22.119-27.641-25.265-18.254-9.365 27.942-34.69 63.343-28.901 73.25 20.589 35.236 93.355 58.018 99.422 48.598 3.641-5.654-33.343-30.738-38.014-44.63z" class="color404859 svgShape"/><path fill="#7f635d" d="M686.214 1230.401s142.934-13.92 224.576-41.167c87.703-14.76 329.252-8.812 362.304 64.051 45.234 99.72-191.379 556.563-191.379 556.563l-91.812-43.153 88.234-409.509s-105.032 60.024-283.72 35.232c-95.52-13.253-220.26-82.858-108.203-162.017z" class="color7f635d svgShape"/><path fill="#f2a185" d="M1011.725 1149.014s-36.359 57.915-175.804 78.178c-53.529 7.788-130.194 55.925-182.331 59.573-32.033-62.269 35.692-297.999 49.789-402.776 2.897-21.535 10.839-122.533 84.052-145.027 5.909-1.816 22.871-3.735 25.425-4.017 9.885-1.075 19.241-1.286 28.104-.67 59.517 4.114 102.628 45.355 122.287 108.883 12.334 39.855 6.365 78.078 16.036 143.122 12.126 81.547 32.442 162.734 32.442 162.734z" class="colorf2a185 svgShape"/><path fill="#ff867a" d="M830.636 679.879 814.8 735.31c-4.029 9.595 17.295 41.501 37.485 35.546 5.91-1.743 1.56-17.178 1.465-28.892l5.098-57.41-28.212-4.675z" class="colorff867a svgShape"/><path fill="#c66c67" d="M831.885 694.33s10.825 14.983 24.342 19.75l1.723-19.406-26.065-.344z" class="colorc66c67 svgShape"/><path fill="#ff867a" d="m819.337 661.27 2.176 14.144c2.961 19.245 20.294 28.85 39.596 26.287 11.528-1.531 24.575-5.398 28.753-15.975 2.28-5.772.715-13.06-1.803-20.599-7.069-21.163-17.614-34.3-26.118-42.117-12.758-11.728-23.029.215-28.707 16.341-5.474 15.548-13.897 21.919-13.897 21.919z" class="colorff867a svgShape"/><path fill="#ffffff" d="M856.902 672.783s11.295-4.743 26.288-9.585c0 0-2.706 29.547-26.288 9.585z" class="colorfff svgShape"/><path fill="#c66c67" d="M866.828 662a17.183 17.183 0 0 0 4.882-6.738c.825-2.02 3.79-.371 2.974 1.627a19.357 19.357 0 0 1-5.4 7.448c-1.647 1.4-4.116-.925-2.456-2.337z" class="colorc66c67 svgShape"/><path fill="#ff867a" d="M825.896 668.193s-8.942-14.218-16.306-8.772c-7.364 5.447 5.307 32.308 16.233 28.024s4.635-11.88.073-19.252z" class="colorff867a svgShape"/><path fill="#434a59" d="M845.527 638.418c-2.6 1.315-5.828 2.231-7.53 4.773-1.243 1.856 1.431 4.139 2.692 2.258 1.331-1.987 3.956-2.682 5.993-3.713 1.99-1.008.856-4.336-1.155-3.318zM872.47 632.047c-2.341-.999-4.594-.359-6.919.322-2.174.637-1.003 3.949 1.162 3.315 1.319-.386 2.883-1.048 4.235-.471 2.073.884 3.606-2.276 1.522-3.166z" class="color434a59 svgShape"/><path fill="#7f635d" d="M878.752 1227.146c35.945-6.68 42.36-19.334 64.249-29.022-3.477-25.985-17.294-96.41-22.691-121.691-1.298-6.081-3.78-20.221-6.937-39.106-22.521 2.055-55.499 5.056-78.209 7.121 7.303 67.921 42.333 173.055 43.588 182.698z" class="color7f635d svgShape"/><path fill="#ff867a" d="M872.563 774.897c-4.227-20.778-21.064-36.955-42.097-39.637-3.98-.508-7.713-.466-10.824.43-15.557 4.483-11.687 19.658-12.243 32.764-.35 8.265 15.295 160.012 27.765 275.994 22.71-2.066 55.688-5.067 78.209-7.121-12.776-76.44-36.608-230.698-37.796-243.697-.487-5.33-1.659-12.077-3.014-18.733z" class="colorff867a svgShape"/><path fill="#434a59" d="M852.566 650.728c.361 1.838-.508 3.557-1.943 3.839-1.434.282-2.89-.98-3.252-2.818-.362-1.838.508-3.557 1.943-3.839 1.435-.282 2.891.98 3.252 2.818zM874.935 642.873c.362 1.838-.508 3.557-1.943 3.839-1.435.282-2.89-.98-3.252-2.818s.508-3.557 1.943-3.839c1.435-.282 2.891.979 3.252 2.818z" class="color434a59 svgShape"/><path fill="#b1d5de" d="M936.67 870.298c9.439-12.17 38.172-49.246 42.269-54.853 0 0-.517-12.157 2.328-18.365 2.845-6.208 20.952-24.055 20.952-24.055L990.062 793.2l1.811.776 16.037-18.365-11.898 20.952 1.811.517 15.52-19.4-11.64 21.986 1.62.776 15.193-20.434s-11.898 24.573-13.709 27.159c-1.811 2.587-19.658 12.416-19.658 12.416l-41.02 56.311a4.662 4.662 0 0 1-6.442 1.074 4.655 4.655 0 0 1-1.017-6.67z" class="colorb1d5de svgShape"/><path fill="#5cbec6" d="M337.684 946.687c4.271 27.701 11.019 59.678 15.932 83.091 16.043 76.448 42.21 133.137 42.21 133.137 27.605 47.409 81.882 61.317 132.194 61.317h184.585c55.257 0 105.441 31.942 129.088 81.882 18.663 39.415 48.876 90.296 84.83 91.061 56.042 1.192 107.008 18.019 107.008 18.019s-10.259 44.954-152.11 42.77-401.721-.373-462.867-42.77-85.198-443.58-80.87-468.507z" class="color5cbec6 svgShape"/><path fill="#9faeb7" d="M1093.16 1321.791a383.624 383.624 0 0 0-13.393 29.705c-2.342-1.385-4.32-3.707-5.989-5.641a57.585 57.585 0 0 1-6.311-8.908c-2.262-3.93-8.355-.385-6.086 3.557 3.568 6.198 8.938 14.253 15.826 17.64-5.975 15.812-10.866 32.008-14.476 48.693-.957 4.422 5.836 6.312 6.796 1.874 6.299-29.115 16.341-56.759 29.718-83.363 2.033-4.041-4.045-7.614-6.085-3.557z" class="color9faeb7 svgShape"/><path fill="#ffffff" d="M880.622 829.363c-10.816 8.897-29.117 26.829-31.034 26.829-1.664 0-21.475-12.138-36.249-21.337 3.525 35.498 8.249 81.338 13.136 127.836 20.993.694 58.102.035 74.55-1.527-7.523-47.364-15.426-98.465-20.403-131.801z" class="colorfff svgShape"/><path fill="#ce4949" d="M2031.641 1131.076c-77.121-26.92-278.223-46.118-514.175-46.118s-437.054 19.198-514.175 46.118h-33.677v268.638c0 38.94 245.282 70.508 547.852 70.508s547.852-31.567 547.852-70.508v-268.638h-33.677z" class="colorce4949 svgShape"/><ellipse cx="1517.465" cy="1131.076" fill="#ff5f4a" rx="547.852" ry="70.508" class="colorff5f4a svgShape"/><defs><path id="a" d="M2065.318 1131.076c0-38.94-245.282-70.508-547.852-70.508s-547.852 31.567-547.852 70.508v268.638c0 38.94 245.282 70.508 547.852 70.508s547.852-31.567 547.852-70.508v-268.638z" fill="#000000" class="color000 svgShape"/></defs><clipPath id="b"><use overflow="visible" xlink:href="#a"/></clipPath><g clip-path="url(#b)" fill="#000000" class="color000 svgShape"><path fill="#ffffff" d="M1032.485 1025.39h44.795v559.944h-44.795zM1221.816 1025.39h44.795v559.944h-44.795zM1411.146 1025.39h44.795v559.944h-44.795zM1600.476 1025.39h44.795v559.944h-44.795zM1789.806 1025.39h44.795v559.944h-44.795zM1979.136 1025.39h44.795v559.944h-44.795z" opacity=".2" class="colorfff svgShape"/><g opacity=".2" fill="#000000" class="color000 svgShape"><path fill="#ffffff" d="M1513.808 579.819h28.8v1121.803h-28.8z" transform="rotate(90 1528.208 1140.72)" class="colorfff svgShape"/><path fill="#ffffff" d="M1513.808 701.544h28.8v1121.803h-28.8z" transform="rotate(90 1528.208 1262.446)" class="colorfff svgShape"/><path fill="#ffffff" d="M1513.808 823.27h28.8v1121.803h-28.8z" transform="rotate(90 1528.208 1384.171)" class="colorfff svgShape"/></g></g><path fill="#ffffff" d="M1284.662 1006.799s-37.141 26.398-45.121 32.537 15.961 4.911 37.141-7.981c21.178-12.891 26.704-28.239 7.98-24.556z" class="colorfff svgShape"/><path fill="#6f7230" d="M1265.241 1040.891s28.946-53.789 7.285-62.594-88.223 56.896-82.219 61.753c6.005 4.856 74.162 12.728 74.934.841z" class="color6f7230 svgShape"/><path fill="#878735" d="M1233.325 1032.91c.829 1.502 1.979 1.068 1.979 1.068s1.242-2.33 3.176-5.769c4.599-1.795 23.453-9.185 22.813-9.396-.586-.194-14.98 3.837-20.836 5.923 3.39-5.881 7.915-13.352 11.874-18.616l.162-.215c3.475-1.19 18.379-6.317 17.221-6.357-1.121-.039-12.231 3.104-15.613 4.229 6.981-9.209 14.006-18.117 12.354-16.815-.915.721-4.652 5.343-8.792 10.555-.049-2.623-.251-11.401-.746-11.235-.166.056.054 4.304.123 7.892.033 1.731-.168 3.463-.016 4.148-3.792 4.781-7.816 9.909-10.26 12.907-1.394 1.71-3.048 3.927-4.711 6.289.404-3.678 2.301-21.296 1.52-20.598-.714.638-3.047 17.794-3.442 23.386-3.915 5.804-7.33 11.652-6.806 12.604z" class="color878735 svgShape"/><ellipse cx="1221.129" cy="1111.386" fill="#cccccc" rx="191.081" ry="63.188" class="colorccc svgShape"/><ellipse cx="1221.129" cy="1100.518" fill="#ffffff" rx="211.301" ry="63.188" class="colorfff svgShape"/><path fill="#ead475" d="M1370.611 1089.654s13.308 5.685 11.159 15.354c-2.149 9.669-18.417 26.551-47.884 35.453s-95.358 17.189-141.145 15.654c-45.787-1.535-85.076-9.822-102.266-23.942-17.189-14.12-34.489-25.958-28.141-43.367 6.348-17.409 34.894-8.238 54.539-4.996 19.645 3.241 253.738 5.844 253.738 5.844z" class="coloread475 svgShape"/><path fill="#ffeda1" d="M1069.043 1104.411c10.302-31.984 73.181-76.959 155.317-76.535 84.647.437 142.891 45.21 149.104 76.535 5.658 28.529-75.328 46.095-181.72 43.245-75.43-2.02-129.167-23.17-122.701-43.245z" class="colorffeda1 svgShape"/><path fill="#ffffff" d="M1327.624 1082.652s34.524-42.705 41.791-52.423c7.267-9.718-20.12-.512-40.509 21.332-20.39 21.845-21.814 41.451-1.282 31.091zM1342.887 993.526c-2.57-.521-5.107 1.023-6.103 3.449-2.13 5.191-8.536 17.454-25.714 32.51-22.904 20.074-5.923 37.111 15.532 17.702 19.048-17.232 27.389-51.41 16.285-53.661z" class="colorfff svgShape"/><path fill="#fffbe9" d="M1151.451 1142.32c-12.6-3.501-52.219-25.702-39.931-33.79 12.288-8.088 38.761 23.621 88.368 22.134 44.148-1.324 88.718-9.518 88.725.275.006 9.554-81.774 26.772-137.162 11.381zM1149.41 1104.854v-17.496s38.982 9.822 69.37 6.139c30.388-3.683 107.432-31.309 120.017-43.894 0 0-2.149 13.506-6.446 20.259s-77.35 54.33-182.941 34.992z" class="colorfffbe9 svgShape"/><path fill="#ffe5dc" d="M1218.209 1114.983v-17.496s38.982 9.822 69.37 6.139c30.388-3.683 107.432-31.309 120.017-43.894 0 0-2.149 13.506-6.446 20.259s-77.351 54.33-182.941 34.992z" class="colorffe5dc svgShape"/><path fill="#fffbe9" d="M1048.731 1103.449v-17.496s38.982 9.822 69.37 6.139c30.388-3.683 107.432-31.309 120.017-43.894 0 0-2.149 13.506-6.446 20.259s-77.351 54.33-182.941 34.992z" class="colorfffbe9 svgShape"/><path fill="#ede96e" d="M1341.027 1033.104c-1.464-10.362-8.747-20.794-8.747-20.794s-32.764 35.913-148.523 66.301c0 0 2.556 10.889 8.985 17.359 8.086-1.434 22.953-4.69 44.384-11.833 30.225-10.076 82.428-37.3 103.901-51.033z" class="colorede96e svgShape"/><path fill="#6f7230" d="M1237.126 1084.136c-21.431 7.144-36.298 10.4-44.384 11.833 1.871 1.883 4.069 3.392 6.629 4.148 11.357 3.356 141.914-52.202 141.914-63.559 0-1.141-.094-2.298-.258-3.455-21.473 13.734-73.676 40.958-103.901 51.033zM1102.209 1054.85s-44.576 41.762-26.85 57.01c17.726 15.247 101.754-25.82 97.61-32.336-4.144-6.516-66.241-35.695-70.76-24.674z" class="color6f7230 svgShape"/><path fill="#878735" d="M1127.464 1068.327c-.307-1.688-1.535-1.643-1.535-1.643s-1.92 1.813-4.849 4.457c-4.931.236-25.157 1.233-24.618 1.637.494.37 15.422 1.136 21.637 1.025-5.087 4.494-11.757 10.134-17.187 13.862l-.221.152c-3.673.02-19.434.132-18.349.539 1.05.394 12.583.955 16.147.966-9.552 6.505-19.048 12.71-17.068 12.003 1.097-.392 6.112-3.582 11.697-7.203-.789 2.502-3.395 10.887-2.872 10.887.175 0 1.32-4.097 2.398-7.52.52-1.652 1.263-3.229 1.337-3.927 5.118-3.323 10.566-6.902 13.838-8.965 1.866-1.177 4.14-2.751 6.469-4.46-1.555 3.358-8.967 19.453-8.004 19.04.88-.377 8.558-15.895 10.714-21.07 5.559-4.256 10.66-8.711 10.466-9.78z" class="color878735 svgShape"/><path fill="#ede96e" d="M1217.106 1049.926c4.921-9.236 5.18-21.956 5.18-21.956s-30.362-6.69-125.71-27.073c0 0-4.349 10.305-2.964 19.32 7.379 3.604 21.311 9.731 42.837 16.583 30.36 9.663 55.216 11.574 80.657 13.126z" class="colorede96e svgShape"/><path fill="#6f7230" d="M1136.449 1036.799c-21.526-6.852-35.458-12.978-42.837-16.583.403 2.623 1.29 5.138 2.913 7.258 7.201 9.402 112.064 34.573 118.754 25.396a24.782 24.782 0 0 0 1.827-2.944c-25.441-1.552-50.297-3.463-80.657-13.127z" class="color6f7230 svgShape"/><path fill="#ede96e" d="M1258.519 1128.514c3.339-9.943.989-22.919.989-22.919s-8.653 4.923-139.579-13.727c0 0-2.509 10.968.828 19.992 8.609 2.857 24.723 7.561 49.081 12.167 34.356 6.496 61.244 5.707 88.681 4.487z" class="colorede96e svgShape"/><path fill="#6f7230" d="M1169.84 1124.027c-24.358-4.606-40.473-9.309-49.081-12.167.971 2.626 2.436 5.088 4.603 7.067 9.616 8.778 126.582 22.863 131.818 12.785a22.305 22.305 0 0 0 1.339-3.198c-27.437 1.22-54.325 2.009-88.679-4.487zM1281.133 1103.626s26.849-15.172 33.185-36.942 19.108-44.092 31.999-32.121c12.892 11.971 21.41 41.634 14.734 57.305-6.676 15.672-64.054 16.057-79.918 11.758z" class="color6f7230 svgShape"/><path fill="#878735" d="M1348.505 1090.849c-2.068 1.974-11.193 5.865-14.473 7.227 2.543-6.373 5.525-15.013 7.468-22.566 4.965-2.843 13.911-16.941 13.911-18.708 0-1.932-.806 1.242-3.683 5.616-2.166 3.292-7.133 7.85-9.458 9.904.746-3.316 1.225-6.296 1.285-8.599.307-11.818-2.528-22.407-2.528-22.407s.358 8.849-.609 16.252c-1.338-3.296-4.445-10.785-4.807-10.168-.401.684 2.835 10.603 4.41 12.848-1.055 6.622-3.17 17.278-5.061 24.265l-8.996-25.963s5.809 24.486 8.114 28.994c-.117.367-.232.72-.345 1.043-1.708 4.897-5.781 12.777-7.769 16.517 1.782-.173 3.548-.374 5.285-.603a81.114 81.114 0 0 0 1.854-4.148c3.273-.878 10.007-3.494 13.215-5.647 4.374-2.936 4.719-6.274 2.187-3.857z" class="color878735 svgShape"/><path fill="#fffbe9" d="M1104.942 1064.037c-11.801-5.636-46.963-34.378-33.457-40.21 13.506-5.832 34.071 29.992 83.183 37.141 43.707 6.362 76.43 4.516 58.934 12.496-17.496 7.98-56.785 15.347-108.66-9.427z" class="colorfffbe9 svgShape"/><path fill="#ffc06e" d="M1186.013 1112.246s-8.491-5.384-2.789-13.819c5.703-8.435 25.347-15.495 31.947-10.737s-11.813 34.839-29.158 24.556z" class="colorffc06e svgShape"/><path fill="#e5a04c" d="M1185.359 1108.563s7.252-11.453 26.129-18.532c0 0-7.252 13.122-26.129 18.532zM1190.329 1017.368s.458 10.769-9.61 12.283c-16.076 2.417-27.551-5.311-29.484-13.213-1.088-4.45 1.829-7.632 6.309-9.731 10.144-4.753 29.031-2.812 32.785 10.661z" class="colore5a04c svgShape"/><path fill="#ffc06e" d="M1189.854 1015.193s3.197 7.236-6.756 9.382-29.813-3.82-31.287-11.821c-1.474-8 32.631-16.985 38.043 2.439z" class="colorffc06e svgShape"/><path fill="#e5a04c" d="M1187.778 1016.349s-13.159 3.254-31.688-4.693c0 0 14.314-4.459 31.688 4.693zM1243.214 1051.493s3.333 10.251 13.295 8.152c15.908-3.351 23.961-14.6 23.01-22.68-.535-4.55-4.38-6.512-9.311-6.914-11.164-.911-28.183 7.506-26.994 21.442z" class="colore5a04c svgShape"/><path fill="#ffc06e" d="M1242.9 1049.289s-.468 7.897 9.608 6.431c10.075-1.466 26.6-13.994 25.187-22.005-1.414-8.012-36.509-4.517-34.795 15.574z" class="colorffc06e svgShape"/><path fill="#e5a04c" d="M1245.249 1049.647s13.467-1.548 28.052-15.467c0 0-14.97.822-28.052 15.467z" class="colore5a04c svgShape"/><path fill="#ed4f3e" d="M1309.03 1066.575s12.412-4.677 14.718-14.219c2.306-9.543-8.802-14.943-8.802-14.943s2.621-5.173-.67-11.241-12.893-10.212-12.893-10.212l2.363-3.496s11.338 3.482 15.166 12.598c3.829 9.116 1.74 11.453 1.74 11.453s8.708 5.826 8.947 12.394-.812 13.243-9.443 18.417c-8.632 5.174-8.388 3.897-8.388 3.897l-2.738-4.648zM1133.422 1012.31s-10.409 12.539-1.201 25.223 29.245 11.552 37.183 7.399c7.938-4.154 9.089-7.602 9.089-7.602l5.263 2.988s-4.112 8.257-17.234 12.071c-13.122 3.814-26.835.541-33.101-4.614s-15.013-18.981-9.719-28.874c5.295-9.892 7.422-10.61 7.422-10.61l2.298 4.019zM1190.14 1009.56s9.931-6.216 20.291-6.446c10.36-.23 16.039 4.828 16.269 7.137.23 2.309-2.108 14.043-2.108 14.043s9.016 4.834 12.161 11.28c3.145 6.446 2.684 7.576 2.684 7.576l7.367-3.713s-4.625-11.814-8.978-15.143c-4.353-3.329-9.156-3.683-9.156-3.683s8.005-11.751 2.134-16.35c-5.87-4.599-14.926-6.937-22.484-5.883-7.558 1.054-20.91 7.385-20.91 7.385l2.73 3.797zM1223.063 1080.125s8.852 8.075 24.893 9.916c16.041 1.842 31.039-3.696 35.03-12.131 3.99-8.435 3.497-16.444 3.497-16.444h10.009s-2.776 24.001-16.895 30.707c-14.12 6.706-21.697 5.984-36.165 4.124-14.468-1.861-22.91-7.776-22.91-7.776l2.541-8.396z" class="colored4f3e svgShape"/><path fill="#ede96e" d="M1047.414 799.077c7.863-6.815 13.59-16.719 13.59-16.719s-20.856-7.633-86.622-31.116c0 0-7.88 7.695-10.711 14.839 4.209 3.399 12.451 9.287 26.322 16.344 19.562 9.951 38.185 13.419 57.421 16.652z" class="colorede96e svgShape"/><path fill="#6f7230" d="M989.993 782.424c-13.87-7.057-22.113-12.945-26.322-16.344-.824 2.079-1.222 4.112-.872 5.894 1.552 7.908 72.685 35.883 81.907 29.254a38.052 38.052 0 0 0 2.708-2.152c-19.236-3.232-37.859-6.7-57.421-16.652z" class="color6f7230 svgShape"/><path fill="#b1d5de" d="M1582.376 1050.862a5.664 5.664 0 0 1-3.848-9.823c2.786-2.577 6.974-10.713 9.588-22.484 2.621-11.805 2.697-22.802.206-30.173-2.623-7.762-7.232-9.07-10.47-9.379-7.138-.68-13.464.48-18.803 3.448-4.006 2.227-7.334 6.09-7.354 6.115-1.777-1.562-7.688-8.186-7.688-8.186.306-.412 3.153-4.117 8.868-7.45 3.319-1.936 6.969-3.378 10.849-4.287 4.764-1.117 9.879-1.426 15.203-.918 5.1.486 9.485 2.377 13.033 5.621 3.112 2.846 5.5 6.685 7.096 11.409 1.688 4.996 2.492 10.957 2.391 17.719-.088 5.834-.873 12.244-2.27 18.537-1.323 5.955-3.152 11.662-5.292 16.505-2.354 5.329-4.932 9.312-7.662 11.838a5.648 5.648 0 0 1-3.847 1.508z" class="colorb1d5de svgShape"/><path fill="#ffffff" d="M1574.021 969.667c1.538 0 3.119.076 4.699.227 4.618.44 8.578 2.142 11.77 5.06 2.838 2.594 5.025 6.127 6.502 10.499 1.608 4.76 2.374 10.476 2.276 16.988-.086 5.689-.853 11.947-2.219 18.098-1.292 5.817-3.075 11.383-5.158 16.097-2.233 5.055-4.638 8.796-7.149 11.119a3.475 3.475 0 0 1-2.367.927 3.45 3.45 0 0 1-2.56-1.119 3.465 3.465 0 0 1-.925-2.503 3.46 3.46 0 0 1 1.116-2.423c3.127-2.894 7.505-11.317 10.235-23.611 2.705-12.182 2.758-23.606.144-31.343-2.273-6.728-6.306-10.277-12.328-10.85a43.147 43.147 0 0 0-4.085-.198c-5.937 0-11.315 1.316-15.984 3.912-2.589 1.439-4.883 3.47-6.346 4.914-1.413-1.463-3.333-3.561-4.738-5.115 1.274-1.351 3.612-3.519 7.066-5.534 3.132-1.826 6.58-3.189 10.249-4.048 3.109-.728 6.406-1.097 9.802-1.097zm0-2.179c-3.568 0-7.016.386-10.297 1.155-3.88.909-7.53 2.352-10.849 4.287-5.714 3.333-8.562 7.038-8.868 7.45 0 0 5.911 6.625 7.688 8.186.019-.025 3.348-3.888 7.354-6.115 4.351-2.419 9.358-3.637 14.926-3.637 1.264 0 2.557.063 3.878.189 3.239.308 7.848 1.616 10.47 9.379 2.49 7.371 2.415 18.369-.206 30.173-2.614 11.771-6.803 19.906-9.588 22.484a5.666 5.666 0 0 0 3.848 9.823 5.648 5.648 0 0 0 3.846-1.507c2.73-2.526 5.308-6.509 7.662-11.838 2.139-4.843 3.969-10.55 5.292-16.505 1.397-6.293 2.182-12.703 2.27-18.537.102-6.761-.703-12.722-2.391-17.719-1.596-4.725-3.984-8.563-7.096-11.409-3.548-3.244-7.933-5.136-13.033-5.621a51.384 51.384 0 0 0-4.906-.238z" class="colorfff svgShape"/><path fill="#b1d5de" d="M1588.375 1045.167c-17.199-16.358-35.299-20.755-36.607-40.365-1.307-19.611 4.576-36.28 4.576-36.28h-24.513l-33.604-6.168s14.974 22.837 13.667 42.448c-1.307 19.611-19.407 24.007-36.607 40.365-27.268 25.934-17.714 67.86-15.697 75.448.172.646.292 1.304.395 1.965 1.554 9.933 33.126 17.862 71.846 17.862s70.292-7.929 71.846-17.862a18.98 18.98 0 0 1 .395-1.965c2.017-7.588 11.57-49.514-15.697-75.448z" class="colorb1d5de svgShape"/><path fill="#ffe164" d="M1589.562 1046.331h-115.464c-25.798 26.006-16.497 66.809-14.509 74.285.172.646.292 1.304.395 1.965 1.554 9.933 33.126 17.862 71.846 17.862s70.292-7.929 71.846-17.862a18.98 18.98 0 0 1 .395-1.965c1.988-7.476 11.289-48.279-14.509-74.285z" class="colorffe164 svgShape"/><path fill="#ffffff" d="m1503.392 965.961 27.966 5.133.234.043h21.219c-.529 1.9-1.188 4.509-1.811 7.665-1.223 6.193-2.536 15.761-1.841 26.174.976 14.643 10.567 21.543 21.672 29.532 5.131 3.691 10.436 7.508 15.741 12.553 5.985 5.692 10.559 12.654 13.596 20.692 2.516 6.659 4.004 14.113 4.425 22.154.753 14.393-2.144 18.705-3.049 22.113-.22.827-.357 1.627-.451 2.232-.244 1.558-2.07 3.373-5.141 5.11-3.514 1.988-8.664 3.86-14.895 5.413-13.261 3.307-30.744 5.129-49.227 5.129-18.484 0-35.966-1.821-49.227-5.129-6.23-1.554-11.381-3.426-14.895-5.413-3.071-1.737-4.897-3.552-5.141-5.11a22.098 22.098 0 0 0-.451-2.232c-.906-3.407-3.803-7.72-3.049-22.113.421-8.041 1.91-15.495 4.425-22.154 3.036-8.038 7.611-15 13.596-20.692 5.305-5.046 10.61-8.862 15.741-12.553 11.105-7.99 20.696-14.889 21.672-29.532.57-8.557-1.636-18.583-6.557-29.802a114.377 114.377 0 0 0-4.552-9.213zm-5.166-3.607s14.974 22.837 13.667 42.448c-1.307 19.611-19.407 24.007-36.607 40.365-27.268 25.934-17.714 67.86-15.697 75.448.172.646.292 1.304.395 1.965 1.554 9.933 33.126 17.862 71.846 17.862s70.292-7.929 71.846-17.862a18.98 18.98 0 0 1 .395-1.965c2.017-7.588 11.571-49.514-15.697-75.448-17.199-16.358-35.299-20.755-36.607-40.365-1.307-19.611 4.576-36.28 4.576-36.28h-24.513l-33.604-6.168zm58.118 6.168z" class="colorfff svgShape"/><ellipse cx="1531.831" cy="1046.331" fill="#ffffff" rx="53.526" ry="7.316" class="colorfff svgShape"/><path fill="#ffc988" d="M1506.097 965.515c3.285 10.336 8.223 25.393 9.302 26.018 1.439.834 5.096.871 10.89.871 5.793 0 11.341-.452 15.62-1.273 3.25-.624 5.054-1.329 5.971-1.847.229-.15.451-.305.663-.465l3.521-19.04c-19.76 2.177-39.494-2.505-45.967-4.264z" class="colorffc988 svgShape"/><path fill="#ffcaca" d="M1556.288 968.522c0 2.132-10.95 3.86-24.458 3.86s-33.604-7.896-33.604-10.028c0-2.132 20.096 2.307 33.604 2.307s24.458 1.729 24.458 3.861z" class="colorffcaca svgShape"/><path fill="#ffffff" d="M1510.877 964.69c6.443.812 14.462 1.823 20.953 1.823 5.729 0 11.272.321 15.608.904 2.758.371 4.499.773 5.581 1.104l3.14-.399c-1.264-1.945-11.674-3.462-24.329-3.462-10.893 0-26.069-2.887-31.537-2.887-1.206 0-1.939.141-2.05.484l5.648 1.602c1.979.2 4.38.503 6.986.831z" class="colorfff svgShape"/><path fill="#e09646" d="M1555.746 955.909h-52.66s1.275 4.144 3.01 9.605c14.757 4.83 26.208 6.442 45.968 4.263l.404-2.183 3.278-11.685z" class="colore09646 svgShape"/><path fill="#ffc988" d="M1555.746 955.909c0 1.626-11.788 2.944-26.33 2.944-14.542 0-26.33-1.318-26.33-2.944s11.788-2.944 26.33-2.944c14.542 0 26.33 1.319 26.33 2.944z" class="colorffc988 svgShape"/><path fill="#e09646" d="M1516.276 953.909s4.886-.816 4.543 0c-.344.817-5.333.12-4.543 0zM1519.318 955.398s1.277.24 1.517 0c.24-.241-1.988-.96-1.517 0zM1523.754 956.453s-.279.528.15.6c.429.072 1.071-.144 1.114-.3s.214-.612-.236-.588c-.449.025-.946.041-1.028.288zM1546.832 954.43s-.914.371.334.67c1.249.3 3.179.43 3.333.299.154-.131.74-.488-.589-.704-1.328-.216-2.794-.466-3.078-.265zM1527.675 954.461s-.278.182 0 .451c.279.269 1.843.283 1.864 0 .021-.283-.129-.763-.6-.787-.471-.024-1.264.336-1.264.336zM1532.904 955.504s-.578-.349-.793 0c-.214.349 1.307.949 1.886.829.578-.119.128-.674-1.093-.829zM1537.893 955.103c-.317.007-.562.359-.449.691.007.02.015.038.024.056.129.245 1.993.172 1.993-.14 0-.289.018-.642-1.568-.607zM1510.631 955.719c-.733.007-1.3.359-1.039.69.015.02.034.038.055.056.297.244 4.609.172 4.609-.14 0-.287.043-.64-3.625-.606zM1541.603 956.909s.043-.868.214-.914 1.543.065 1.993-.146c.45-.211.514 1.06-.557 1.18s-1.65-.12-1.65-.12z" class="colore09646 svgShape"/><path fill="#c6813c" d="M1543.597 961.469s-5.338.036-3.413 1.344c1.925 1.307 7.408-.763 5.955-1.344s-2.542 0-2.542 0zM1533.309 965.119c.616-.068.617-.962.002-1.04-.814-.103-1.723-.271-2.279-.54-1.198-.581-2.106.835 0 1.416a6.159 6.159 0 0 0 2.277.164zM1538.799 966.02c.265-.16.079-.566-.217-.473-.391.124-.839.238-1.148.232-.666-.013-.781.82.297.643.396-.065.77-.223 1.068-.402zM1518.873 963.969s-.876-1.213-2.075-.567c-1.198.646 2.433 3.674 2.76 2.559.327-1.115-.685-1.992-.685-1.992zM1523.635 961.432s-.856-.116-1.063.642c-.207.758 2.505.444 2.169-.136-.337-.58-1.106-.506-1.106-.506zM1530.155 965.448s-.856-.116-1.063.642c-.207.758 2.506.444 2.169-.136-.336-.58-1.106-.506-1.106-.506zM1548.605 961.981s-.856-.116-1.063.642 2.505.444 2.169-.136c-.336-.581-1.106-.506-1.106-.506zM1510.598 960.336s-.856-.116-1.063.642c-.207.758 3.759 2.234 3.74.448-.006-.671-2.677-1.09-2.677-1.09z" class="colorc6813c svgShape"/><path fill="#ffffff" d="M1553.019 968.522c-1.082.331-2.823.733-5.581 1.104-4.336.583-9.879.904-15.608.904-5.328 0-12.635-1.355-20.047-3.717-2.888-.92-5.675-1.964-7.893-2.953l-5.648-1.602a.301.301 0 0 0-.017.095c0 2.132 20.096 10.028 33.604 10.028s24.458-1.728 24.458-3.86a.728.728 0 0 0-.129-.399l-3.139.4zM1509.527 1028.322a1.552 1.552 0 0 1-1.23-2.497c.072-.093 7.195-9.485 8.679-20.473 1.496-11.087-2.24-24.411-2.277-24.544a1.551 1.551 0 0 1 2.985-.85c.162.569 3.953 14.069 2.368 25.809-1.597 11.828-8.98 21.541-9.294 21.949a1.551 1.551 0 0 1-1.231.606z" class="colorfff svgShape"/><path fill="#ff867a" d="M907.715 900.853s26.124-43.799 34.666-51.227c8.542-7.428 21.911-20.426 24.14-18.569 2.228 1.857-14.112 21.54-14.112 21.54s14.159 11.141 14.321 19.683c.163 8.542-6.894 11.141-6.894 11.141s-12.998 28.968-30.082 31.196c-17.083 2.229-22.039-13.764-22.039-13.764z" class="colorff867a svgShape"/><path fill="#f2a185" d="M777.719 771.591c41.824 37.969 11.191 229.305 11.191 229.305s92.428-138.98 120.708-118.977c28.28 20.003 55.331 41.934 50.773 64.767s-131.987 259.421-228.041 212.272c-115.148-56.522-32.891-306.261-14.674-343.356 18.216-37.095 45.707-57.026 60.043-44.011z" class="colorf2a185 svgShape"/><path fill="#d17a69" d="M742.7 1102.299a4.14 4.14 0 0 1-4.133-4.424c3.508-50.852 45.489-97.783 47.274-99.756a4.139 4.139 0 0 1 6.138 5.553c-.418.462-41.847 46.814-45.154 94.773a4.14 4.14 0 0 1-4.125 3.854z" class="colord17a69 svgShape"/><path fill="#d17a69" d="M787.021 1007.223a4.143 4.143 0 0 1-4.061-4.959c.051-.252 5.146-25.766 10.302-76.155 5.135-50.194-.172-101.414-.226-101.925a4.139 4.139 0 1 1 8.231-.873c.055.519 5.455 52.564.229 103.641-5.203 50.851-10.371 76.697-10.423 76.953a4.14 4.14 0 0 1-4.052 3.318zM754.852 1169.825c-10.471 0-20.137-2.286-28.945-6.863-18.143-9.427-29.675-26.917-37.694-41.101-16.502-29.186-18.985-67.602-19.083-69.224a4.138 4.138 0 0 1 3.881-4.379 4.15 4.15 0 0 1 4.381 3.88c.023.378 2.483 38.158 18.026 65.648 18.025 31.881 44.278 60.626 102.261 32.212 2.939-1.842 42.269-26.656 51.451-40.859a4.14 4.14 0 0 1 6.951 4.493c-10.493 16.233-52.425 42.397-54.205 43.503l-.358.199c-16.931 8.325-32.532 12.491-46.666 12.491z" class="colord17a69 svgShape"/><path fill="#2f6c70" d="m1261.727 406.895 26.106 52.896 58.374 8.483-42.24 41.174 9.972 58.138-52.212-27.449-52.212 27.449 9.972-58.138-42.241-41.174 58.375-8.483z" class="color2f6c70 svgShape"/><path fill="#ffe164" d="m1438.08 407.419 26.106 52.896 58.374 8.482-42.24 41.174 9.972 58.139-52.212-27.449-52.212 27.449 9.972-58.139-42.241-41.174 58.375-8.482z" class="colorffe164 svgShape"/><path fill="#ffffff" d="M1422.398 458.304a2.629 2.629 0 0 1-2.404-3.687l13.146-29.877a2.629 2.629 0 0 1 4.811 2.117l-13.146 29.877a2.632 2.632 0 0 1-2.407 1.57zM1370.408 474.348a2.628 2.628 0 0 1-.323-5.235l38.543-4.818a2.627 2.627 0 1 1 .652 5.214l-38.543 4.818a2.62 2.62 0 0 1-.329.021z" class="colorfff svgShape"/><path fill="#ffe164" d="m1614.486 407.419 26.106 52.896 58.375 8.482-42.241 41.174 9.972 58.139-52.212-27.449-52.211 27.449 9.971-58.139-42.24-41.174 58.374-8.482z" class="colorffe164 svgShape"/><path fill="#ffffff" d="M1598.804 458.304a2.629 2.629 0 0 1-2.404-3.687l13.146-29.877a2.628 2.628 0 0 1 4.811 2.117l-13.146 29.877a2.63 2.63 0 0 1-2.407 1.57zM1546.814 474.348a2.628 2.628 0 0 1-.323-5.235l38.543-4.818a2.627 2.627 0 1 1 .652 5.214l-38.543 4.818c-.11.014-.22.021-.329.021z" class="colorfff svgShape"/><path fill="#ffe164" d="m878.46 407.419 26.106 52.896 58.374 8.482-42.24 41.174 9.972 58.139-52.212-27.449-52.212 27.449 9.972-58.139-42.241-41.174 58.375-8.482z" class="colorffe164 svgShape"/><path fill="#ffffff" d="M862.778 458.304a2.629 2.629 0 0 1-2.404-3.687l13.146-29.877a2.628 2.628 0 0 1 4.811 2.117l-13.146 29.877a2.632 2.632 0 0 1-2.407 1.57zM810.788 474.348a2.628 2.628 0 0 1-.323-5.235l38.543-4.818a2.627 2.627 0 1 1 .652 5.214l-38.543 4.818c-.11.014-.22.021-.329.021z" class="colorfff svgShape"/><path fill="#ffe164" d="m1054.866 407.419 26.106 52.896 58.375 8.482-42.24 41.174 9.971 58.139-52.212-27.449-52.211 27.449 9.971-58.139-42.24-41.174 58.375-8.482z" class="colorffe164 svgShape"/><path fill="#ffffff" d="M1039.184 458.304a2.629 2.629 0 0 1-2.404-3.687l13.146-29.877a2.629 2.629 0 0 1 4.811 2.117l-13.146 29.877a2.63 2.63 0 0 1-2.407 1.57zM987.195 474.348a2.628 2.628 0 0 1-.323-5.235l38.543-4.818a2.627 2.627 0 1 1 .652 5.214l-38.543 4.818a2.631 2.631 0 0 1-.329.021z" class="colorfff svgShape"/><path fill="#6f7230" d="M982.309 751.547c-.168.489-1.38 5.714 7.415 18.635s31.313 16.197 44.662 14.301c13.349-1.897 23.107-15.865 17.761-19.658-5.346-3.794-19.141 1.38-31.212-4.484-12.07-5.863-32.763-25.866-38.626-8.794z" class="color6f7230 svgShape"/><path fill="#878735" d="m1052.147 764.824-.053-.034c-4.538 1.873-10.551 4.082-16.423 5.412l6.803-6.909c-.952.016-1.941.038-2.959.056l-7.432 7.549a38.991 38.991 0 0 1-4.59.479c-6.293.237-12.328-1.068-17.485-3.124l19.624-5.348a32.519 32.519 0 0 1-4.424-.939l-18.191 4.957c-3.919-1.909-7.173-4.211-9.395-6.486a47.164 47.164 0 0 1-1.724-1.878l16.805-3.117c-.828-.538-1.667-1.086-2.515-1.638l-15.827 2.936c-3.161-3.859-6.374-8.429-8.026-10.835a7.5 7.5 0 0 0-1.597 1.334c1.722 2.51 4.95 7.089 8.155 10.979l-.852 14.819a26.015 26.015 0 0 0 1.965 1.873l.829-14.427c.443.494.88.965 1.304 1.4 2.363 2.421 5.821 4.873 9.986 6.899l8.142 14.99c.867.167 1.734.319 2.6.45l-7.646-14.076c4.997 1.998 10.76 3.33 16.794 3.33.516 0 1.036-.01 1.556-.029a41.249 41.249 0 0 0 4.765-.488l11.718 7.864a27.216 27.216 0 0 0 1.827-1.266l-10.63-7.135c6.553-1.38 13.273-3.873 18.151-5.914a3.376 3.376 0 0 0-1.255-1.684z" class="color878735 svgShape"/><path fill="#c66c67" d="M889.862 685.726c.936-2.37 1.216-4.998 1.056-7.791-1.77 3.121-6.071 8.448-16.093 12.878-15.153 6.698-42.707 3.544-42.929 3.518.114.095.228.191.344.285l.592.472c7.387 5.688 17.525 8.041 28.278 6.613 11.527-1.531 24.574-5.398 28.752-15.975z" class="colorc66c67 svgShape"/><path fill="#f27c79" d="M1202.939 645.857s6.015-10.771 7.134-13.708c1.119-2.937 5.176-14.967 4.896-20.282-.28-5.315-4.057-9.092.699-10.071 4.756-.979 5.735 6.434 8.113 10.211 2.378 3.777 3.777 6.28 7.274 5.588 3.497-.692 23.22-16.116 35.11-15.887 11.89.228-3.077 6.243-3.077 6.243s13.708-3.497 16.925.42c3.217 3.917-2.605 17.065-9.905 21.401-7.3 4.336-35.835 25.458-41.291 25.738-5.455.279-22.8-4.198-25.878-9.653z" class="colorf27c79 svgShape"/><path fill="#ffe164" d="m1233.272 487.764 26.106 52.897 58.374 8.482-42.24 41.174 9.972 58.139-52.212-27.449-52.212 27.449 9.972-58.139-42.24-41.174 58.374-8.482z" class="colorffe164 svgShape"/><path fill="#ffffff" d="M1217.59 538.65a2.628 2.628 0 0 1-2.404-3.687l13.146-29.877a2.629 2.629 0 0 1 4.811 2.117l-13.146 29.877a2.632 2.632 0 0 1-2.407 1.57zM1165.6 554.694a2.628 2.628 0 0 1-.323-5.235l38.543-4.818a2.627 2.627 0 1 1 .652 5.214l-38.543 4.818c-.11.014-.22.021-.329.021z" class="colorfff svgShape"/><path fill="#36995e" d="m1438.173 618.298-18.402 107.437 146.318-92.087v-15.35z" class="color36995e svgShape"/><path fill="#b76458" d="M1106.894 858.469a4.138 4.138 0 0 1-3.631-2.147c-13.91-25.323-8.984-76.13-8.768-78.281a4.138 4.138 0 0 1 8.236.828c-.051.502-4.884 50.399 7.787 73.467a4.14 4.14 0 0 1-3.624 6.133z" class="colorb76458 svgShape"/><path fill="#36995e" d="M1160.686 343.562a6.188 6.188 0 0 1-3.492-1.079l-68.286-46.559a6.207 6.207 0 0 1-1.632-8.626 6.207 6.207 0 0 1 8.626-1.632l68.286 46.559a6.207 6.207 0 0 1-3.502 11.337zM1355.545 343.562a6.208 6.208 0 0 1-3.503-11.337l68.286-46.559a6.208 6.208 0 0 1 6.994 10.258l-68.286 46.559a6.182 6.182 0 0 1-3.491 1.079z" class="color36995e svgShape"/><ellipse cx="1728.105" cy="1120.088" fill="#ce4949" rx="82.859" ry="20.42" class="colorce4949 svgShape"/><path fill="#68a1aa" d="M1728.105 942.456c-37.468 0-67.841 5.337-67.841 11.92s30.374 11.92 67.841 11.92c37.468 0 67.841-5.337 67.841-11.92 0-6.584-30.373-11.92-67.841-11.92z" class="color68a1aa svgShape"/><path fill="#36995e" d="M1261.727 331.491a6.209 6.209 0 0 1-6.208-6.208v-56.561a6.209 6.209 0 0 1 12.416 0v56.561a6.209 6.209 0 0 1-6.208 6.208z" class="color36995e svgShape"/><path fill="#af5546" d="M1699.395 985.039s-2.069-37.592-4.828-50.353c-2.759-12.76-6.635-34.128 4.828-35.178 15.061-1.38 11.477 21.405 12.512 32.786 1.035 11.381 5.422 57.127-.441 60.109-5.863 2.983-12.06 2.98-12.071-7.364zM1716.941 990.794s6.65-37.057 6.906-50.11c.256-13.053 1.409-34.738 12.805-33.118 14.973 2.128 6.235 23.474 4.619 34.787-1.616 11.313-7.889 56.839-14.281 58.39-6.393 1.549-12.422.118-10.049-9.949z" class="coloraf5546 svgShape"/><path fill="#84c0ce" d="M1728.105 966.296c-37.468 0-67.841-5.337-67.841-11.92v164.552c0 6.583 30.374 11.92 67.841 11.92 37.468 0 67.841-5.337 67.841-11.92V954.376c0 6.583-30.373 11.92-67.841 11.92z" class="color84c0ce svgShape"/><circle cx="1700.775" cy="911.062" r="3.363" fill="#434a59" class="color434a59 svgShape"/><path fill="#434a59" d="M1738.84 919.425a3.363 3.363 0 1 1-6.544-1.55 3.363 3.363 0 0 1 6.544 1.55z" class="color434a59 svgShape"/><path fill="#54678c" d="m1563.12 1182.351-.19-1.038c-.694-3.79-10.204-33.537-15.211-33.537h-114.135c-3.116 0-5.645 1.19-6.945 3.002l-1.333-.208v5.011c0 1.263.114 2.524.34 3.767l3.921 21.553a10.124 10.124 0 0 0 9.96 8.312h115.785c5.006 0 8.503-3.072 7.808-6.862z" class="color54678c svgShape"/><path fill="#434a59" d="m1562.302 1177.882-4.7-25.653c-.694-3.79-5.317-6.862-10.324-6.862h-114.135c-5.008 0-8.504 3.072-7.81 6.862l4.7 25.653c.694 3.79 5.317 6.862 10.324 6.862h114.135c5.008.001 8.504-3.072 7.81-6.862z" class="color434a59 svgShape"/><path fill="#434a59" d="m1560.931 1177.378-4.55-24.837c-.616-3.363-4.718-6.089-9.161-6.089h-113.675c-4.472 0-7.594 2.744-6.974 6.128l4.455 24.316c.665 3.629 5.091 6.571 9.885 6.571h113.091c4.442 0 7.545-2.727 6.929-6.089z" class="color434a59 svgShape"/><path fill="#434a59" d="m1554.915 1168.057-1.364-7.446c-.061-.333.162-.606.495-.606h.075c.333 0 .656.272.717.606l1.364 7.446c.061.333-.162.606-.495.606h-.075a.763.763 0 0 1-.717-.606zM1553.928 1159.159c-.355 0-.67-.144-.702-.321-.032-.177.229-.321.584-.321s.67.144.702.321c.033.177-.229.321-.584.321zM1555.906 1169.953c-.355 0-.67-.144-.702-.321-.032-.177.229-.321.585-.321.355 0 .67.144.702.321.031.177-.23.321-.585.321z" class="color434a59 svgShape"/></svg>